<?xml version="1.0" encoding="UTF-8" standalone="no"?>
<svg
   xmlns:dc="http://purl.org/dc/elements/1.1/"
   xmlns:cc="http://creativecommons.org/ns#"
   xmlns:rdf="http://www.w3.org/1999/02/22-rdf-syntax-ns#"
   xmlns:svg="http://www.w3.org/2000/svg"
   xmlns="http://www.w3.org/2000/svg"
   xmlns:xlink="http://www.w3.org/1999/xlink"
   xmlns:sodipodi="http://sodipodi.sourceforge.net/DTD/sodipodi-0.dtd"
   xmlns:inkscape="http://www.inkscape.org/namespaces/inkscape"
   version="1.1"
   width="239.042"
   height="98.407"
   viewBox="0 0 239.042 98.407"
   overflow="visible"
   enable-background="new 0 0 239.042 98.407"
   xml:space="preserve"
   id="svg989"
   sodipodi:docname="Mars_Logo_02.svg"
   inkscape:version="1.0.2-2 (e86c870879, 2021-01-15)"><metadata
   id="metadata995"><rdf:RDF><cc:Work
       rdf:about=""><dc:format>image/svg+xml</dc:format><dc:type
         rdf:resource="http://purl.org/dc/dcmitype/StillImage" /><dc:title></dc:title></cc:Work></rdf:RDF></metadata><defs
   id="defs993"><linearGradient
   inkscape:collect="always"
   id="linearGradient1595"><stop
     style="stop-color:#d39f45;stop-opacity:1;"
     offset="0"
     id="stop1591" /><stop
     style="stop-color:#d39f45;stop-opacity:0;"
     offset="1"
     id="stop1593" /></linearGradient>
	
	
	
	
	
	
	
	
	
	
	
	
	
	
	
	
	
	
<linearGradient
   inkscape:collect="always"
   xlink:href="#linearGradient1595"
   id="linearGradient1597"
   x1="-1.1012934e-05"
   y1="49.203415"
   x2="236.443"
   y2="49.203415"
   gradientUnits="userSpaceOnUse" /></defs><sodipodi:namedview
   pagecolor="#ffffff"
   bordercolor="#666666"
   borderopacity="1"
   objecttolerance="10"
   gridtolerance="10"
   guidetolerance="10"
   inkscape:pageopacity="0"
   inkscape:pageshadow="2"
   inkscape:window-width="1920"
   inkscape:window-height="1017"
   id="namedview991"
   showgrid="false"
   inkscape:zoom="5.0786053"
   inkscape:cx="119.521"
   inkscape:cy="49.203499"
   inkscape:window-x="-8"
   inkscape:window-y="-8"
   inkscape:window-maximized="1"
   inkscape:current-layer="svg989" />
<g
   id="g923"
   style="fill:url(#linearGradient1597);fill-opacity:1">
		<path
   d="M 236.096,33.519 C 234.785,26.307 229.723,19.757 221.421,14.571 200.006,1.184 156.199,-3.486 109.78,2.688 79.603,6.7 51.853,14.702 31.646,25.229 8.971,37.046 -2.149,51.113 0.344,64.851 c 2.498,13.743 18.078,24.267 43.87,29.626 22.995,4.792 52.275,5.214 82.459,1.195 30.168,-3.999 57.91,-12.016 78.139,-22.545 20.557,-10.712 31.631,-23.297 31.631,-35.803 0,-1.276 -0.117,-2.544 -0.347,-3.805 z"
   id="path921"
   style="fill:url(#linearGradient1597);fill-opacity:1" />
	</g><path
   stroke="#000000"
   stroke-width="2.6945"
   d="M 237.308,20.953 C 236.17,16.356 231.266,11.617 226,10.057 c -4.91,-1.455 -9.867,-0.906 -14.333,1.585 -3.524,1.966 -6.317,5.042 -7.972,8.74 -0.098,-0.134 -0.195,-0.27 -0.298,-0.398 -2.544,-3.149 -6.695,-6.198 -12.791,-5.612 v 0 c -4.76,0.459 -8.582,2.32 -13.194,6.424 -0.644,0.572 -1.273,1.212 -1.895,1.87 -2.187,-1.999 -5.335,-2.739 -8.668,-1.94 -2.394,0.576 -4.647,1.723 -7.312,3.719 -3.771,2.828 -7.105,6.217 -8.916,9.065 -0.07,0.108 -0.134,0.216 -0.2,0.326 -0.154,-1.027 -0.526,-2.066 -1.043,-2.875 -1.363,-2.137 -4.086,-4.345 -7.125,-4.776 -1.353,-0.193 -3.365,-0.194 -5.708,0.669 -2.083,-1.99 -4.809,-3.813 -8.908,-4.106 -8.03,-0.574 -17.851,4.813 -25.022,13.722 v 0 c -2.024,2.516 -3.722,5.179 -5.057,7.887 0.604,-4.924 1.481,-9.429 2.705,-13.908 1.426,-5.216 -0.563,-10.327 -7.66,-13.118 -3.476,-1.366 -7.156,-1.435 -10.097,-0.189 -1.78,0.755 -3.289,1.972 -5.453,3.954 -2.418,2.215 -5.26,5.163 -8.253,8.538 0.533,-1.501 1.023,-2.837 1.448,-3.994 l 0.47,-1.279 c 0.546,-1.495 0.819,-2.958 0.819,-4.335 0,-1.704 -0.417,-3.278 -1.246,-4.621 C 68.547,12.58 64.759,9.863 60.91,9.165 57.566,8.558 54.891,8.728 52.234,9.716 c -3.291,1.224 -5.178,3.099 -7.983,6.057 -7.533,7.946 -15.353,18.014 -23.242,29.924 -6.242,9.428 -15.983,25.796 -18.029,32 -1.221,3.696 -1.096,6.848 0.385,9.637 1.771,3.336 5.607,6.255 8.896,7.195 5.07,1.448 9.198,-0.982 11.044,-6.503 2.8,-8.366 8.085,-19.017 14.352,-29.167 -0.88,5.666 -1.324,9.987 -1.324,12.894 v 0.032 c 0.152,6.409 1.227,10.102 6.826,13.446 2.725,1.631 5.75,2.265 8.297,1.738 2.47,-0.509 4.221,-1.975 5.68,-4.75 5.966,-11.361 11.956,-20.405 16.897,-27.076 -0.01,0.619 -0.016,1.24 -0.016,1.867 0,3.453 0.142,6.297 0.418,8.455 1.708,13.277 11.762,18.167 19.983,15.616 3.422,-1.063 5.752,-3.325 6.393,-6.208 0.227,-1.022 0.203,-1.972 0.043,-2.839 6.75,5.913 17.863,3.449 27.731,-5.865 3.181,3.452 7.107,5.709 13.759,3.573 4.253,-1.366 9.15,-4.868 12.468,-8.863 2.645,4.801 9.942,8.064 16.318,3.91 2.957,-1.921 4.109,-4.767 5.033,-7.055 0.012,-0.024 0.025,-0.042 0.037,-0.067 l 0.101,-0.198 0.008,-0.017 c 0.021,-0.047 0.029,-0.065 1.142,-2.711 0.79,-1.831 2.09,-4.684 4.191,-8.146 1.283,-2.116 2.474,-3.888 3.612,-5.36 -0.665,0.992 -1.166,2.167 -1.438,3.512 -0.532,2.612 -0.023,5.855 1.332,8.46 4.282,8.238 12.863,11.125 20.66,10.463 6.736,-0.572 13.239,-4.25 16.97,-9.599 5.53,-7.928 3.191,-16.426 0.949,-22.128 -0.577,-1.468 -0.831,-2.645 -0.727,-3.271 0.041,-0.249 0.142,-0.355 0.282,-0.371 0.15,-0.021 0.308,0.111 0.468,0.318 1.651,1.842 3.356,3.453 5.641,3.838 2.216,0.375 4.314,-0.313 5.908,-1.94 1.691,-1.725 3.104,-5.143 2.009,-9.564 z M 203.39,35.016 c 0.573,1.762 1.088,3.479 1.088,5.115 -0.021,2.227 -1.135,2.932 -1.971,3.267 -1.479,0.595 -2.61,-0.244 -3.908,-1.946 -2.294,-3.001 -5.464,-4.786 -9.169,-3.493 -1.148,0.402 -2.22,1.074 -3.126,1.989 2.255,-2.62 4.349,-4.046 6.604,-4.608 0.813,-0.203 1.524,-0.208 2.057,-0.015 0.413,0.15 0.573,0.247 0.813,0.393 0.234,0.142 0.526,0.319 0.98,0.515 0.913,0.391 1.651,0.506 2.717,0.427 1.403,-0.104 2.774,-0.755 3.867,-1.797 0.014,0.051 0.03,0.102 0.048,0.153 z M 97.549,73.178 c -0.513,2.317 -2.418,4.043 -5.189,4.903 -2.676,0.832 -5.898,0.739 -8.408,-0.239 -4.517,-1.762 -6.999,-6.659 -7.763,-12.601 -0.281,-2.18 -0.404,-5.021 -0.404,-8.23 0,-3.72 0.164,-7.221 0.483,-10.895 -5.863,7.135 -14.084,18.451 -22.235,33.971 -1.256,2.392 -2.59,3.454 -4.47,3.842 -2.109,0.435 -4.681,-0.116 -7.034,-1.526 -2.944,-1.758 -4.239,-4.715 -4.362,-8.831 L 38.1,71.753 c 0,-3.865 0.819,-10.369 2.436,-19.332 0.449,-2.496 0.793,-4.104 1.329,-6.689 -9.82,13.629 -18.083,29.399 -21.77,40.423 -1.504,4.497 -4.564,6.596 -8.883,5.363 C 8.594,90.77 6.389,89.257 4.928,86.505 3.648,84.094 3.622,81.387 4.658,78.25 6.634,72.26 16.438,55.802 22.485,46.671 30.832,34.07 38.664,24.236 45.537,16.987 c 2.878,-3.036 4.47,-4.559 7.316,-5.617 2.544,-0.946 4.931,-0.98 7.743,-0.47 2.937,0.533 5.357,2.014 6.657,4.12 1.264,2.046 1.257,4.722 0.271,7.421 -1.456,3.985 -3.911,10.396 -6.244,19.051 5.519,-7.13 11.933,-14.485 16.967,-19.096 2.021,-1.85 3.401,-2.972 4.95,-3.628 2.428,-1.03 5.667,-1.01 8.76,0.206 4.399,1.729 6.322,5.098 5.065,9.695 -1.662,6.087 -2.646,11.973 -3.22,18.648 -0.513,5.96 -0.361,11.176 0.241,14.636 0.311,1.78 0.72,3.346 1.866,5.35 0.78,1.363 2.202,3.356 1.64,5.875 z m 54.954,-15.474 c -2.99,3.909 -7.912,7.657 -12.233,9.045 -4.536,1.457 -8.996,0.868 -11.45,-3.191 -0.415,-0.687 -0.581,-1.156 -0.898,-2.067 -9.909,10.595 -21.162,13.448 -27.473,7.873 -2.933,-2.589 -4.494,-6.047 -4.581,-11.086 -0.116,-6.808 3.009,-14.345 8.126,-20.703 6.808,-8.458 16.078,-13.598 23.518,-13.067 3.407,0.245 6.401,1.852 8.512,4.482 2.205,-1.082 4.287,-1.299 5.982,-1.058 1.975,0.281 3.505,1.348 4.347,2.666 0.546,0.855 0.848,2.026 0.848,2.969 0,1.349 -0.354,2.79 -1.119,4.8 -0.792,2.082 -1.807,5.087 -2.733,9.012 0.203,-0.158 0.534,-0.461 0.638,-0.549 2.799,-2.415 6.438,-2.755 8.919,-0.245 2.137,2.162 3.287,6.293 -0.403,11.119 z m 26.095,-13.338 c -2.027,3.34 -3.351,6.157 -4.31,8.378 0,0 -1.096,2.611 -1.109,2.641 0,0 -0.185,0.367 -0.183,0.364 -0.913,2.261 -1.907,4.651 -4.362,6.248 -3.727,2.425 -9.491,2.317 -12.037,-1.571 -0.676,-1.035 -1.021,-2.223 -0.955,-3.582 0.066,-1.435 0.521,-2.836 1.378,-4.448 1.184,-2.321 1.687,-3.917 2.279,-5.767 -2.312,0.579 -5.187,-0.355 -6.84,-2.339 -2.501,-3.001 -2.234,-6.861 -0.345,-9.832 1.642,-2.582 4.797,-5.834 8.485,-8.599 2,-1.5 4.167,-2.815 6.662,-3.415 3.154,-0.756 6.419,0.086 8.203,2.882 1.011,-1.108 2.076,-2.278 3.125,-3.21 4.113,-3.661 7.6,-5.542 12.187,-5.985 h 0.002 c 4.388,-0.422 7.736,1.209 9.711,3.653 1.325,1.642 2.088,3.914 2.208,6.242 0.105,1.97 -0.339,3.918 -1.371,5.386 -0.902,1.308 -2.228,2.08 -3.518,2.176 -0.838,0.062 -1.283,-0.029 -1.889,-0.291 -0.793,-0.339 -0.874,-0.577 -1.891,-0.944 -0.904,-0.327 -1.978,-0.313 -3.083,-0.038 -3.952,0.981 -7.492,4.045 -12.347,12.051 z m 53.903,-16.398 c -1.109,1.134 -2.571,1.737 -4.351,1.435 -1.649,-0.279 -2.668,-1.427 -3.895,-2.927 -0.914,-1.116 -2.126,-1.761 -3.333,-1.146 -1.435,0.731 -1.733,2.493 -0.376,5.947 2.92,7.427 3.604,14.223 -0.752,20.469 -3.522,5.051 -9.577,8.333 -15.672,8.85 -8.247,0.702 -14.422,-2.465 -17.407,-8.206 -1.204,-2.318 -1.608,-5.137 -1.166,-7.295 0.511,-2.527 2.298,-4.711 4.462,-5.469 2.228,-0.776 4.179,-0.2 5.893,1.694 1.205,1.331 1.861,2.68 3.315,3.469 1.244,0.675 2.62,0.781 3.945,0.248 1.93,-0.774 3.054,-2.388 3.08,-4.907 0,-1.96 -0.618,-3.951 -1.175,-5.662 -0.782,-2.4 -1.144,-4.656 -1.138,-6.781 0.006,-2.001 0.345,-3.94 0.965,-5.591 1.476,-3.94 4.237,-7.017 7.631,-8.911 3.992,-2.227 8.508,-2.756 12.97,-1.434 4.185,1.239 7.61,4.483 8.561,8.314 0.853,3.445 -0.075,6.391 -1.557,7.903 z"
   id="path925" /><path
   d="m 115.987,46.889 c 2.92,-4.231 6.916,-7.037 10.072,-7.58 0.881,-0.151 1.442,-0.112 2.14,0.048 -0.029,0.187 -0.031,0.566 -0.154,1.012 -0.602,2.557 -4.807,8.241 -10.25,11.891 -2.492,1.668 -4.08,1.979 -4.97,2.21 0.335,-2.76 1.508,-5.183 3.162,-7.581 z"
   id="path927" /><path
   fill="#fffad1"
   d="m 104.448,37.941 v 0 c -5.194,6.452 -8.108,13.861 -7.998,20.328 0.081,4.703 1.475,8.09 4.383,10.66 6.06,5.352 16.13,1.538 22.923,-4.27 1.259,-1.076 2.493,-2.149 3.756,-3.451 l 0.656,-0.679 0.311,0.893 c 0.304,0.875 0.444,1.183 0.838,1.835 2.818,4.661 7.961,3.842 10.775,2.938 4.117,-1.324 9.044,-4.929 11.979,-8.768 3.411,-4.461 2.462,-8.309 0.402,-10.394 -2.296,-2.322 -5.423,-2.097 -8.183,0.317 -1.144,0.954 -1.707,1.417 -1.996,1.735 l 0.423,-1.547 c 0.846,-3.13 2.01,-7.23 2.741,-9.353 0.674,-1.953 0.977,-3.402 0.977,-4.696 0,-1.035 -0.367,-1.919 -0.677,-2.479 -0.689,-1.258 -2.286,-2.294 -3.883,-2.521 -1.799,-0.256 -3.978,0.137 -5.553,1 l -0.429,0.234 -0.324,-0.368 c -2.014,-2.512 -4.891,-4.036 -8.101,-4.267 -7.287,-0.519 -16.324,4.534 -23.02,12.853 z m 7.859,16.254 c 0.463,-2.429 0.883,-4.26 3.214,-7.64 v 0 c 2.86,-4.146 6.857,-7.138 10.432,-7.808 0.93,-0.176 1.717,-0.177 2.403,-0.008 l 0.476,0.119 -0.039,0.544 c -0.016,0.208 -0.043,0.596 -0.189,1.12 -0.682,2.901 -5.16,8.648 -10.485,12.218 -2.383,1.595 -3.935,1.982 -4.862,2.214 l -1.075,0.271 z"
   id="path929" /><path
   fill="#fffad1"
   d="m 190.831,16.709 c -4.181,0.402 -8.099,2.36 -11.781,5.811 -1.115,1.044 -2.212,2.074 -3.195,3.22 l -0.44,0.515 -0.743,-1.052 -0.238,-0.269 c -1.558,-1.883 -4.115,-2.626 -7.037,-1.926 -2.599,0.625 -5.156,2.346 -6.45,3.315 -3.639,2.729 -6.686,5.804 -8.362,8.435 -1.891,2.977 -1.764,6.657 0.32,9.157 1.793,2.152 4.437,2.49 6.401,2.078 l 0.874,-0.27 -0.266,0.913 c -0.513,1.743 -1.021,3.364 -2.376,6.021 -0.528,0.996 -1.236,2.504 -1.317,4.211 -0.055,1.185 0.233,2.274 0.863,3.235 2.356,3.603 7.811,3.631 11.231,1.402 2.343,-1.521 3.298,-3.889 4.14,-5.978 0.02,-0.042 0.201,-0.406 0.201,-0.406 -0.006,0.018 1.102,-2.614 1.102,-2.614 1.074,-2.496 2.396,-5.237 4.343,-8.446 4.715,-7.773 8.396,-11.359 12.707,-12.375 1.051,-0.249 2.267,-0.375 3.007,-0.144 0.872,0.272 1.455,0.613 1.922,0.887 0.665,0.389 1.072,0.641 2.05,0.576 1.21,-0.079 2.292,-0.814 3.06,-1.927 2.018,-2.875 1.597,-7.949 -0.813,-10.933 -2.032,-2.515 -5.342,-3.807 -9.203,-3.436 z"
   id="path931" /><path
   fill="#fffad1"
   d="m 205.368,22.326 v 0 c -0.614,1.636 -0.834,3.173 -0.834,5.11 0,2.125 0.286,4.486 1.097,6.842 0.56,1.625 1.203,3.757 1.203,5.852 -0.031,3.142 -1.478,5.048 -4.3,5.671 -2.468,0.543 -4.481,-0.412 -6.158,-2.924 -1.766,-2.65 -3.786,-3.533 -6.171,-2.701 -1.973,0.691 -3.614,2.714 -4.085,5.036 -0.431,2.113 0.029,4.824 1.113,6.911 2.99,5.751 9.08,8.555 16.841,7.895 6.132,-0.521 12.019,-3.891 15.323,-8.625 4.548,-6.516 3.072,-13.43 0.608,-19.908 -1.32,-3.459 -1.096,-5.711 0.661,-6.694 1.25,-0.668 2.949,-0.106 4.051,1.333 0.961,1.252 2.128,2.564 3.516,2.798 1.456,0.248 2.715,-0.197 3.855,-1.36 1.638,-1.672 2.063,-4.153 1.263,-7.375 -0.895,-3.607 -4.041,-6.699 -8.017,-7.877 -8.358,-2.477 -17.06,2.263 -19.966,10.016 z"
   id="path933" /><path
   fill="#fffad1"
   d="m 48.975,14.409 v 0 C 43.59,19.354 33.8,30.583 22.95,46.986 16.944,56.068 7.17,72.492 5.211,78.433 c -1.009,3.05 -0.875,5.822 0.27,7.857 1.309,2.327 3.33,3.908 5.855,4.471 3.571,0.796 6.915,-0.809 8.203,-4.785 C 22.97,75.388 31.336,59.869 41.374,45.478 l 1.646,-2.349 -0.83,3.913 -1.085,5.484 c -1.609,8.928 -2.425,15.397 -2.425,19.227 10e-4,0 0.066,1.798 0.066,1.798 0.3,4.201 1.586,6.933 3.933,8.336 2.313,1.384 4.727,2.034 6.727,1.48 1.655,-0.458 2.911,-1.305 4.114,-3.555 9.006,-16.837 17.869,-28.626 22.351,-34.155 l 1.219,-1.503 -0.188,1.926 c -0.378,3.873 -0.561,7.445 -0.561,10.921 0,3.186 0.146,6.008 0.424,8.165 0.808,6.28 3.437,10.588 7.399,12.134 2.393,0.934 5.466,1.021 8.022,0.227 2.571,-0.798 4.274,-2.393 4.799,-4.489 0.558,-2.182 -0.533,-3.727 -1.478,-5.221 l -0.152,-0.241 c -0.809,-1.182 -1.492,-3.59 -1.844,-5.419 -0.926,-4.8 -0.738,-9.688 -0.312,-14.887 0.477,-5.81 1.687,-12.832 3.237,-18.784 1.103,-4.242 -0.513,-7.35 -4.674,-8.986 -2.861,-1.127 -5.98,-1.206 -8.34,-0.211 -1.473,0.621 -2.82,1.715 -4.792,3.522 -4.839,4.433 -10.928,11.253 -16.701,18.711 l -2.069,2.92 c 2.407,-8.747 6.213,-19.72 7.119,-22.198 0.955,-2.614 0.79,-4.961 -0.275,-6.847 -1.113,-1.972 -3.186,-3.352 -6.195,-3.938 -4.525,-0.876 -8.74,0.384 -11.534,2.95 z"
   id="path935" /><path
   fill="#e2001a"
   d="m 230.344,21.088 c -0.014,-0.081 -0.031,-0.161 -0.049,-0.241 -0.542,-2.404 -2.637,-4.575 -5.879,-5.573 -6.306,-1.941 -13.536,1.364 -16.071,8.133 -1.053,2.803 -0.965,6.306 0.226,9.896 0.795,2.405 1.655,5.344 1.261,8.409 -0.505,3.934 -3.248,6.421 -6.678,7.134 -3.768,0.784 -6.976,-0.682 -9.35,-4.242 -0.907,-1.36 -1.515,-1.871 -2.581,-1.5 -0.9,0.316 -1.797,1.436 -2.059,2.725 -0.272,1.338 0.092,3.106 0.829,4.367 2.584,4.426 8.037,6.576 13.785,5.981 5.351,-0.552 9.945,-3.251 12.667,-7.003 3.132,-4.318 3.418,-9.96 0.881,-16.632 -2.066,-5.419 -1.47,-9.104 1.6,-10.82 2.409,-1.291 5.468,-0.541 7.292,2.122 0.799,1.168 1.215,1.504 1.858,1.605 1.279,0.204 2.819,-1.3 2.268,-4.361 z"
   id="path937" /><path
   fill="#e2001a"
   d="m 155.225,36.438 c -1.316,2.071 -1.033,3.95 -0.002,4.927 1.091,1.032 2.672,0.732 4.493,-1.095 0.735,-0.74 1.897,-1.793 2.618,-2.251 0.423,-0.268 1.195,-0.809 1.76,-0.596 0.624,0.233 0.534,1.432 0.513,1.952 -0.111,2.608 -1.668,9.545 -4.271,14.652 -1.121,2.108 -1.171,3.154 -0.571,3.984 0.891,1.24 4.027,1.39 6.397,-0.153 1.75,-1.139 2.5,-2.857 3.279,-4.404 1.165,-2.314 2.656,-6.278 5.641,-11.199 4.713,-7.771 9.489,-13.007 15.247,-13.865 2.14,-0.322 3.481,0.005 4.454,0.735 0.756,0.569 1.249,0.781 1.912,0.679 0.569,-0.088 0.973,-0.4 1.306,-0.88 1.265,-1.802 1.1,-5.032 -0.329,-6.746 -1.536,-1.838 -3.593,-2.666 -6.54,-2.382 -3.315,0.319 -6.378,1.681 -10.058,5.053 -2.585,2.37 -4.932,5.321 -6.288,7.368 -0.414,0.62 -0.769,1.142 -1.193,1.09 -0.438,-0.053 -0.376,-0.776 -0.354,-1.231 0.102,-2.012 -0.121,-3.887 -1.125,-5.102 -0.98,-1.188 -2.624,-1.266 -3.992,-0.938 -1.86,0.447 -3.466,1.4 -5.292,2.769 -3.268,2.448 -6.102,5.273 -7.605,7.633 z"
   id="path939" /><path
   fill="#e2001a"
   d="m 131.879,61.256 c 1.567,2.109 4.149,2.168 7.073,1.229 3.854,-1.237 7.698,-4.099 10.392,-7.361 1.82,-2.205 2.343,-4.53 0.83,-6.06 -0.912,-0.922 -2.37,-0.604 -3.764,0.545 -0.986,0.812 -2.854,2.595 -3.836,3.109 -1.749,0.92 -2.778,0.916 -3.481,0.283 -0.597,-0.537 -0.653,-1.809 -0.302,-3.888 0.581,-3.43 2.479,-9.68 3.549,-12.357 1.17,-2.921 1.137,-3.55 0.763,-4.229 -0.279,-0.506 -0.913,-0.848 -1.577,-0.941 -1.185,-0.169 -2.688,0.1 -3.721,0.657 -0.772,0.416 -1.476,0.945 -2.115,1.747 -0.24,0.297 -0.444,0.419 -0.661,0.387 -0.228,-0.037 -0.353,-0.343 -0.458,-0.61 -1.239,-3.21 -3.906,-5.329 -7.39,-5.579 -5.813,-0.416 -13.985,3.833 -20.296,11.675 -6.823,8.476 -10.313,20.61 -4.304,25.658 3.815,3.204 10.855,2.583 19.193,-4.023 2.221,-1.758 5.345,-4.817 7.188,-6.871 0.425,-0.474 1.121,-1.368 1.555,-1.008 0.22,0.182 0.142,0.676 0.121,0.917 -0.237,2.779 0.126,5.213 1.241,6.72 z m -21.657,-3.738 c -2.13,-1.867 -1.521,-7.378 2.333,-12.964 3.813,-5.527 9.677,-9.348 13.484,-9.364 1.699,-0.01 3.017,0.555 4.142,1.688 0.918,0.927 1.479,1.963 1.603,3.078 0.347,2.821 -4.9,10.677 -11.924,15.385 -4.431,2.963 -7.896,3.704 -9.638,2.177 z"
   id="path941" /><path
   fill="#e2001a"
   d="m 90.164,62.585 c -0.858,-4.163 -0.954,-9.64 -0.47,-15.55 0.491,-5.996 1.489,-12.425 3.071,-18.398 0.926,-3.496 0.61,-5.143 -2.148,-6.227 -2.044,-0.805 -4.317,-0.941 -5.98,-0.24 -1.026,0.432 -2.156,1.355 -3.893,2.947 -6.969,6.382 -17.349,18.82 -24.116,29.245 -0.769,1.067 -1.266,1.788 -1.928,2.767 -0.312,0.475 -0.581,0.759 -0.762,0.729 -0.243,-0.042 -0.243,-0.488 -0.162,-1.091 0.131,-0.986 0.184,-1.472 0.351,-2.46 C 56.1,42.701 60.88,27.561 63.773,20.766 64.32,19.481 64.571,18.315 64.053,17.09 63.582,15.975 62.144,14.963 59.912,14.529 55.46,13.667 52.684,15.134 50.586,17.146 44.541,22.941 34.953,34.507 25.56,48.711 19.17,58.37 9.938,74.084 8.18,79.413 c -0.556,1.684 -0.26,2.988 0.25,3.897 0.788,1.401 2.354,2.63 3.973,3.143 1.689,0.528 3.428,-0.049 4.174,-2.355 5.071,-15.653 17.999,-36.997 29.709,-50.931 0.514,-0.613 0.746,-0.89 1.148,-1.303 0.452,-0.438 0.873,-0.746 1.211,-0.578 0.266,0.131 0.24,0.56 0.098,1.116 -0.21,0.82 -0.202,0.745 -0.432,1.618 -1.339,5.055 -2.916,12.34 -4.126,19.059 -1.549,8.594 -2.6,16.216 -2.338,19.894 0.147,2.074 0.89,3.878 2.915,5.09 3.218,1.924 5.093,1.1 6.484,-1.497 9.651,-18.046 19.638,-31.185 27.343,-39.42 0.749,-0.841 1.153,-1.202 1.495,-1.468 0.413,-0.284 0.698,-0.329 0.904,-0.196 0.247,0.157 0.247,0.58 0.198,0.953 -0.079,0.605 -0.089,0.731 -0.198,1.438 -1.608,10.461 -1.96,20.384 -1.122,26.895 0.546,4.235 1.921,7.154 4.896,8.315 1.708,0.666 4.056,0.746 5.959,0.154 1.418,-0.439 2.431,-1.213 2.693,-2.26 0.305,-1.192 -0.615,-2.38 -1.585,-3.971 -0.646,-1.061 -1.292,-2.617 -1.665,-4.421 z"
   id="path943" /><g
   id="g973">
		<path
   d="m 231.513,22.334 c -0.016,-0.081 -0.033,-0.161 -0.051,-0.241 -0.283,-1.258 -1.01,-2.414 -2.101,-3.374 0.45,0.669 0.766,1.386 0.934,2.127 0.018,0.081 0.035,0.16 0.049,0.241 0.551,3.061 -0.988,4.565 -2.269,4.36 -0.643,-0.102 -1.059,-0.437 -1.858,-1.605 -1.824,-2.663 -4.883,-3.413 -7.292,-2.122 -3.07,1.716 -3.667,5.401 -1.6,10.82 2.538,6.672 2.251,12.314 -0.881,16.632 -2.721,3.752 -7.315,6.451 -12.667,7.003 -4.894,0.506 -9.57,-0.979 -12.449,-4.162 2.616,4.278 7.417,6.274 13.071,5.689 5.45,-0.563 10.407,-3.435 13.265,-7.375 3.13,-4.317 3.689,-9.985 1.101,-16.638 -1.384,-3.553 -1.774,-5.373 -1.39,-7.396 0.271,-1.426 1.064,-2.438 2.368,-3.163 2.388,-1.329 5.039,-0.211 7.07,2.491 0.78,1.037 1.386,1.344 2.07,1.361 1.833,0.05 3.114,-1.97 2.63,-4.648 z"
   id="path945" />
		<g
   id="g951">
			<path
   d="m 163.513,39.197 c 0.272,-0.173 0.692,-0.458 1.105,-0.584 -0.021,-0.505 -0.128,-1.043 -0.524,-1.191 -0.565,-0.212 -1.337,0.328 -1.76,0.596 -0.721,0.458 -1.883,1.512 -2.618,2.251 -1.499,1.504 -2.834,1.97 -3.869,1.514 0.144,0.29 0.33,0.547 0.554,0.759 1.091,1.032 2.674,0.734 4.493,-1.094 0.736,-0.738 1.897,-1.794 2.619,-2.251 z"
   id="path947" />
			<path
   d="m 198.988,23.113 c -0.558,-0.665 -1.212,-1.208 -1.963,-1.619 0.224,0.21 0.44,0.437 0.646,0.682 1.429,1.714 1.594,4.944 0.329,6.746 -0.333,0.48 -0.737,0.792 -1.306,0.88 -0.663,0.103 -1.156,-0.109 -1.912,-0.679 -0.973,-0.73 -2.314,-1.057 -4.454,-0.735 -5.758,0.858 -10.534,6.094 -15.247,13.865 -2.984,4.92 -4.476,8.884 -5.641,11.199 -0.778,1.547 -1.528,3.265 -3.279,4.404 -1.838,1.196 -4.136,1.374 -5.491,0.815 0.064,0.185 0.156,0.354 0.272,0.517 0.891,1.239 3.938,1.417 6.308,-0.126 1.75,-1.138 2.692,-2.964 3.47,-4.51 1.166,-2.315 2.554,-6.201 5.54,-11.121 4.972,-8.202 9.36,-12.892 15.108,-13.749 2.14,-0.322 3.672,0.157 4.477,0.77 0.752,0.574 1.132,0.762 1.885,0.647 0.653,-0.101 1.152,-0.58 1.483,-1.06 1.596,-2.272 1.117,-5.318 -0.225,-6.926 z"
   id="path949" />
		</g>
		<g
   id="g961">
			<path
   d="m 143.103,32.528 c 0.374,0.679 0.407,1.308 -0.763,4.229 -1.07,2.678 -2.968,8.928 -3.549,12.357 -0.351,2.079 -0.294,3.351 0.302,3.888 0.288,0.26 0.635,0.411 1.061,0.439 -0.182,-0.695 -0.18,-1.701 0.031,-3.025 0.608,-3.817 2.312,-9.67 3.382,-12.348 1.169,-2.922 1.039,-3.932 0.689,-4.626 -0.259,-0.516 -0.678,-0.838 -1.2,-0.986 0.015,0.025 0.033,0.047 0.047,0.072 z"
   id="path953" />
			<path
   d="m 110.222,57.518 c 0.258,0.226 0.554,0.401 0.884,0.528 -1.608,-2.192 -0.855,-7.233 2.719,-12.415 3.93,-5.698 9.125,-8.748 12.941,-8.902 1.544,-0.063 3.33,0.379 4.419,1.453 -0.259,-0.456 -0.594,-0.892 -1.004,-1.305 -1.125,-1.133 -2.442,-1.697 -4.142,-1.688 -3.807,0.016 -9.671,3.837 -13.484,9.364 -3.853,5.587 -4.463,11.098 -2.333,12.965 z"
   id="path955" />
			<path
   d="m 151.357,50.164 c -0.201,-0.193 -0.425,-0.325 -0.667,-0.408 0.821,1.493 0.219,3.475 -1.347,5.369 -2.694,3.262 -6.538,6.124 -10.392,7.361 -2.333,0.75 -4.446,0.859 -6.003,-0.197 0.027,0.038 0.053,0.08 0.082,0.117 1.565,2.109 4.085,2.293 7.009,1.354 3.618,-1.163 7.614,-4.096 10.382,-7.444 1.989,-2.408 2.045,-5.086 0.936,-6.152 z"
   id="path957" />
			<path
   d="m 130.637,54.537 c 0.021,-0.24 0.1,-0.734 -0.121,-0.917 -0.435,-0.359 -1.13,0.535 -1.555,1.008 -1.842,2.053 -4.967,5.112 -7.188,6.871 -8.2,6.496 -15.141,7.201 -18.998,4.176 0.256,0.39 0.541,0.761 0.854,1.112 3.258,3.642 11.072,2.418 19.165,-3.994 2.221,-1.759 5.521,-5.158 7.365,-7.21 0.131,-0.144 0.279,-0.309 0.437,-0.46 0.011,-0.193 0.025,-0.388 0.041,-0.586 z"
   id="path959" />
		</g>
		<g
   id="g971">
			<path
   d="m 64.052,17.091 c 0.518,1.226 0.267,2.392 -0.28,3.676 -2.893,6.795 -7.673,21.934 -9.646,33.541 -0.167,0.988 -0.22,1.474 -0.351,2.46 -0.081,0.603 -0.081,1.049 0.162,1.091 0.181,0.029 0.45,-0.254 0.762,-0.729 0.202,-0.298 0.387,-0.572 0.57,-0.838 0.019,-0.114 0.041,-0.237 0.07,-0.379 2.862,-14.431 6.708,-26.374 9.571,-33.486 0.744,-1.848 0.812,-2.918 0.314,-4.045 -0.232,-0.522 -0.645,-1.024 -1.252,-1.453 0.029,0.052 0.057,0.106 0.08,0.162 z"
   id="path963" />
			<path
   d="m 48.604,32.929 c 0.036,-0.131 0.079,-0.292 0.138,-0.527 0.143,-0.556 0.168,-0.985 -0.098,-1.116 -0.338,-0.168 -0.759,0.14 -1.211,0.578 -0.402,0.413 -0.635,0.69 -1.148,1.303 -11.71,13.934 -24.638,35.278 -29.709,50.931 -0.746,2.307 -2.484,2.884 -4.174,2.355 -1.495,-0.474 -2.943,-1.559 -3.777,-2.826 0.043,0.366 0.139,0.744 0.297,1.176 0.556,1.507 1.79,2.842 3.853,3.334 2.062,0.49 4.189,-0.469 5.06,-2.991 5.825,-16.901 17.34,-35.77 29.852,-51.193 0.353,-0.422 0.64,-0.735 0.917,-1.024 z"
   id="path965" />
			<path
   d="m 81.127,36.899 c 0.016,-0.129 0.034,-0.273 0.06,-0.464 0.049,-0.373 0.049,-0.796 -0.198,-0.953 -0.207,-0.133 -0.491,-0.088 -0.904,0.196 -0.342,0.266 -0.747,0.627 -1.495,1.468 -7.705,8.235 -17.691,21.375 -27.343,39.42 -1.392,2.597 -3.267,3.421 -6.484,1.497 -0.611,-0.366 -1.103,-0.786 -1.5,-1.251 0.313,1.252 0.947,2.183 1.995,2.871 2.931,1.926 5.8,0.636 7.162,-1.911 9.653,-18.046 19.756,-31.343 27.462,-39.578 0.533,-0.601 0.934,-1.011 1.245,-1.295 z"
   id="path967" />
			<path
   d="m 93.597,68.345 c -0.839,-1.387 -1.455,-2.853 -1.772,-4.643 -0.696,-3.93 -1.082,-9.545 -0.599,-15.455 0.491,-5.995 1.288,-12.016 2.834,-18.073 0.764,-2.99 0.558,-4.803 -1.137,-5.934 0.492,1.027 0.366,2.414 -0.158,4.396 -1.582,5.973 -2.58,12.402 -3.071,18.398 -0.484,5.91 -0.389,11.388 0.47,15.55 0.374,1.804 1.02,3.36 1.667,4.42 0.97,1.591 1.89,2.779 1.585,3.971 -0.263,1.047 -1.275,1.821 -2.693,2.26 -1.903,0.592 -4.251,0.512 -5.959,-0.154 -0.543,-0.212 -1.032,-0.484 -1.474,-0.811 0.717,0.95 1.626,1.666 2.777,2.115 1.708,0.666 3.854,0.715 5.758,0.124 1.418,-0.439 2.612,-1.367 2.875,-2.415 0.302,-1.189 0.036,-1.865 -1.103,-3.749 z"
   id="path969" />
		</g>
	</g><path
   fill="#d39f45"
   d="m 234.059,20.066 c -0.951,-3.832 -4.376,-7.075 -8.561,-8.314 -4.461,-1.322 -8.978,-0.793 -12.97,1.434 -3.394,1.894 -6.156,4.971 -7.631,8.911 -0.62,1.65 -0.959,3.589 -0.965,5.591 -0.006,2.125 0.356,4.38 1.138,6.781 0.558,1.711 1.175,3.702 1.175,5.662 -0.025,2.52 -1.15,4.133 -3.08,4.907 -1.326,0.533 -2.702,0.427 -3.945,-0.248 -1.454,-0.789 -2.111,-2.138 -3.315,-3.469 -1.713,-1.894 -3.665,-2.47 -5.893,-1.694 -2.164,0.758 -3.951,2.942 -4.462,5.469 -0.442,2.158 -0.039,4.977 1.166,7.295 2.984,5.741 9.16,8.907 17.407,8.206 6.095,-0.518 12.149,-3.799 15.672,-8.85 4.356,-6.246 3.672,-13.042 0.752,-20.469 -1.357,-3.454 -1.059,-5.216 0.376,-5.947 1.207,-0.616 2.419,0.03 3.333,1.146 1.227,1.5 2.246,2.648 3.895,2.927 1.779,0.302 3.241,-0.301 4.351,-1.435 1.481,-1.513 2.409,-4.459 1.557,-7.903 z m -5.175,6.919 c -0.685,-0.018 -1.291,-0.324 -2.07,-1.361 -2.031,-2.702 -4.682,-3.819 -7.07,-2.491 -1.304,0.725 -2.097,1.737 -2.368,3.163 -0.384,2.022 0.006,3.842 1.39,7.396 2.588,6.653 2.029,12.321 -1.101,16.638 -2.858,3.94 -7.814,6.812 -13.265,7.375 -5.655,0.584 -10.456,-1.411 -13.071,-5.688 -0.002,-0.002 -0.004,-0.005 -0.006,-0.007 0.16,0.634 0.399,1.271 0.69,1.863 1.289,2.619 3.358,4.437 5.939,5.426 -4.2,-0.947 -7.756,-3.471 -10.038,-7.381 -1.135,-1.938 -1.597,-4.612 -1.193,-6.584 0.429,-2.121 1.885,-3.948 3.659,-4.569 1.618,-0.564 3.003,-0.187 4.089,0.757 -0.864,-0.357 -2.064,1.045 -1.661,1.859 0.317,0.27 0.631,0.677 0.996,1.224 0.813,1.219 1.723,2.193 2.723,2.915 -0.345,-0.402 -0.271,-1.093 0.029,-1.603 0.277,-0.465 0.807,-0.923 1.242,-0.566 1.532,1.21 3.754,1.544 5.682,0.829 2.713,-1.006 3.957,-3.369 3.957,-6.049 0,-2.115 -0.624,-4.204 -1.232,-6.041 -0.721,-2.173 -1.082,-4.337 -1.082,-6.382 0,-1.849 0.294,-3.602 0.887,-5.177 2.928,-7.809 11.333,-12.043 19.14,-9.64 2.386,0.734 4.67,2.204 5.992,4.043 -0.852,-0.6 -2.216,0.893 -1.777,1.787 1.089,0.96 1.816,2.115 2.099,3.373 0.018,0.081 0.035,0.161 0.051,0.241 0.482,2.677 -0.799,4.697 -2.631,4.65 z"
   id="path975" /><path
   fill="#d39f45"
   d="m 202.696,26.025 c -0.121,-2.329 -0.883,-4.601 -2.208,-6.242 -1.975,-2.443 -5.323,-4.075 -9.711,-3.653 h -0.002 c -4.586,0.443 -8.074,2.325 -12.187,5.985 -1.049,0.932 -2.113,2.102 -3.125,3.21 -1.784,-2.795 -5.048,-3.638 -8.203,-2.882 -2.495,0.6 -4.662,1.916 -6.662,3.415 -3.688,2.765 -6.844,6.017 -8.485,8.599 -1.889,2.97 -2.156,6.831 0.345,9.832 1.653,1.984 4.528,2.917 6.84,2.339 -0.592,1.851 -1.095,3.446 -2.279,5.767 -0.857,1.612 -1.312,3.013 -1.378,4.448 -0.066,1.359 0.279,2.547 0.955,3.582 2.546,3.889 8.31,3.997 12.037,1.571 2.456,-1.597 3.45,-3.987 4.362,-6.248 -0.002,0.002 0.183,-0.364 0.183,-0.364 0.014,-0.029 1.109,-2.641 1.109,-2.641 0.959,-2.221 2.282,-5.038 4.31,-8.378 4.855,-8.005 8.395,-11.069 12.346,-12.052 1.105,-0.274 2.179,-0.289 3.083,0.038 1.018,0.368 1.098,0.605 1.891,0.944 0.606,0.262 1.05,0.353 1.889,0.291 1.291,-0.097 2.616,-0.869 3.518,-2.176 1.032,-1.466 1.477,-3.414 1.372,-5.385 z m -3.482,4.015 c -0.331,0.48 -0.83,0.959 -1.483,1.06 -0.752,0.115 -1.132,-0.073 -1.885,-0.647 -0.805,-0.613 -2.337,-1.092 -4.477,-0.77 -5.749,0.857 -10.136,5.547 -15.108,13.749 -2.986,4.92 -4.375,8.805 -5.54,11.121 -0.778,1.546 -1.719,3.372 -3.47,4.51 -2.37,1.543 -5.417,1.366 -6.308,0.126 -0.117,-0.161 -0.207,-0.332 -0.271,-0.516 0,-0.001 -0.004,-0.001 -0.006,-0.002 0.056,0.896 0.536,1.789 1.282,2.415 0.772,0.647 1.918,1.071 2.774,1.159 -2.907,0.611 -5.809,-0.38 -7.052,-2.451 -0.632,-1.056 -0.786,-1.944 -0.786,-2.895 0,-1.412 0.487,-2.489 1.228,-4.006 1.575,-3.228 2.282,-5.514 3.08,-8.549 0.585,-1.891 1.76,-4.125 3.427,-5.724 0,-0.002 0,-0.005 -0.002,-0.006 -0.413,0.125 -0.833,0.41 -1.105,0.583 -0.722,0.457 -1.883,1.513 -2.62,2.251 -1.818,1.829 -3.401,2.126 -4.493,1.094 -0.222,-0.212 -0.41,-0.469 -0.554,-0.759 -0.002,-0.001 -0.002,-0.001 -0.004,-0.002 -0.06,1.123 0.285,2.239 0.998,2.929 0.55,0.532 1.051,0.713 1.639,0.867 -1.734,0.289 -3.76,-0.643 -5.025,-2.017 -1.014,-1.103 -1.544,-2.503 -1.598,-4.008 -0.057,-1.585 0.337,-2.995 1.265,-4.454 1.534,-2.413 4.53,-5.534 8.199,-8.283 1.657,-1.243 3.706,-2.602 6.218,-3.207 2.417,-0.58 4.661,-0.064 6.126,1.375 -0.45,-0.216 -0.947,0.107 -1.244,0.556 -0.292,0.443 -0.45,1.064 -0.279,1.469 0.977,1.216 1.197,3.073 1.096,5.065 -0.021,0.455 -0.084,1.178 0.354,1.231 0.008,10e-4 0.018,0 0.027,10e-4 0.466,-2.604 1.452,-5.702 2.674,-7.103 0.95,-1.088 1.992,-2.185 3.095,-3.196 3.953,-3.622 7.577,-5.317 11.502,-5.695 v 0 c 3.175,-0.305 5.793,0.479 7.805,2.333 -0.975,-0.308 -1.936,1.057 -1.665,1.853 0.747,0.411 1.401,0.952 1.957,1.616 1.345,1.608 1.824,4.654 0.229,6.927 z"
   id="path977" /><path
   fill="#d39f45"
   d="m 152.907,46.585 c -2.481,-2.511 -6.121,-2.17 -8.919,0.245 -0.104,0.088 -0.435,0.391 -0.638,0.549 0.926,-3.925 1.941,-6.93 2.733,-9.012 0.764,-2.01 1.119,-3.451 1.119,-4.8 0,-0.943 -0.302,-2.114 -0.848,-2.969 -0.842,-1.318 -2.372,-2.385 -4.347,-2.666 -1.696,-0.241 -3.777,-0.023 -5.982,1.058 -2.111,-2.631 -5.104,-4.237 -8.512,-4.482 -7.44,-0.531 -16.71,4.609 -23.518,13.067 -5.118,6.358 -8.242,13.895 -8.126,20.703 0.087,5.039 1.648,8.497 4.581,11.086 6.312,5.575 17.564,2.722 27.473,-7.873 0.317,0.911 0.483,1.38 0.898,2.067 2.454,4.059 6.914,4.647 11.45,3.191 4.322,-1.389 9.243,-5.137 12.233,-9.045 3.689,-4.826 2.539,-8.957 0.403,-11.119 z m -2.211,3.173 c 0.24,0.083 0.462,0.214 0.661,0.405 1.109,1.066 1.052,3.745 -0.936,6.152 -2.768,3.349 -6.764,6.281 -10.382,7.444 -2.924,0.938 -5.444,0.755 -7.009,-1.354 -0.029,-0.038 -0.055,-0.079 -0.082,-0.117 -0.02,-0.013 -0.041,-0.025 -0.06,-0.039 0.183,0.796 0.547,1.552 1.192,2.258 0.632,0.692 1.934,1.514 3.218,1.609 -3.477,0.49 -6.066,-1.064 -7.358,-3.163 -1.41,-2.288 -0.558,-5.599 0.649,-7.696 0.002,-0.045 0.003,-0.089 0.005,-0.133 -0.157,0.15 -0.306,0.315 -0.437,0.459 -1.844,2.053 -5.144,5.451 -7.365,7.21 -8.093,6.412 -15.907,7.635 -19.165,3.994 -0.313,-0.351 -0.598,-0.723 -0.854,-1.112 -0.002,-0.002 -0.004,-0.004 -0.006,-0.005 0.281,1.288 0.759,2.384 1.531,3.206 1.003,1.069 1.783,1.411 3.372,1.924 -2.509,0.05 -4.633,-0.795 -6.765,-2.71 -2.561,-2.3 -3.854,-5.897 -3.871,-9.927 -0.026,-6.388 2.951,-13.708 7.903,-19.863 6.566,-8.157 15.367,-13.104 22.42,-12.6 2.236,0.161 4.284,0.955 5.941,2.247 -0.314,0.011 -0.669,0.137 -0.965,0.436 -0.45,0.454 -0.618,1.142 -0.396,1.67 1.148,0.945 2.049,2.207 2.629,3.714 0.105,0.267 0.23,0.573 0.458,0.61 0.01,0 0.02,0 0.029,10e-4 0.033,-1.022 0.308,-2.745 0.673,-3.8 0.29,-0.199 0.569,-0.357 0.891,-0.53 1.495,-0.807 3.562,-1.173 5.255,-0.932 1.205,0.171 2.263,0.747 2.965,1.577 -0.867,-0.417 -1.891,0.774 -1.83,1.697 0.016,0.021 0.031,0.045 0.045,0.066 0.522,0.147 0.941,0.47 1.2,0.986 0.349,0.694 0.48,1.704 -0.689,4.626 -1.07,2.678 -2.774,8.531 -3.382,12.348 -0.211,1.325 -0.213,2.329 -0.031,3.024 0.388,-1.394 1.397,-3.025 3.308,-4.586 l 1.394,-1.186 c 2.096,-1.729 5.018,-2.443 7.078,-0.367 0.156,0.157 0.318,0.334 0.455,0.511 -0.751,-0.334 -1.969,0.923 -1.689,1.946 z"
   id="path979" /><path
   fill="#d39f45"
   d="m 95.911,67.304 c -1.146,-2.004 -1.555,-3.57 -1.866,-5.35 -0.602,-3.459 -0.754,-8.676 -0.241,-14.636 0.574,-6.675 1.558,-12.561 3.22,-18.648 1.257,-4.597 -0.667,-7.966 -5.065,-9.695 -3.094,-1.216 -6.332,-1.236 -8.76,-0.206 -1.548,0.656 -2.928,1.778 -4.95,3.628 -5.034,4.61 -11.448,11.966 -16.967,19.096 2.333,-8.655 4.788,-15.065 6.244,-19.051 0.985,-2.699 0.992,-5.375 -0.271,-7.421 -1.3,-2.106 -3.721,-3.586 -6.657,-4.12 -2.813,-0.51 -5.199,-0.476 -7.743,0.47 -2.847,1.058 -4.438,2.581 -7.316,5.617 -6.873,7.249 -14.705,17.083 -23.052,29.684 -6.049,9.131 -15.854,25.589 -17.829,31.579 -1.036,3.137 -1.011,5.844 0.27,8.255 1.461,2.752 3.666,4.265 6.284,5.013 4.318,1.232 7.379,-0.866 8.883,-5.363 3.687,-11.024 11.95,-26.794 21.77,-40.423 -0.536,2.585 -0.88,4.194 -1.329,6.689 C 38.92,61.384 38.1,67.889 38.1,71.754 l 0.067,1.819 c 0.123,4.116 1.418,7.073 4.362,8.831 2.354,1.41 4.925,1.96 7.034,1.526 1.88,-0.388 3.214,-1.45 4.47,-3.842 8.151,-15.52 16.372,-26.836 22.235,-33.971 -0.32,3.674 -0.483,7.175 -0.483,10.895 0,3.209 0.124,6.05 0.404,8.23 0.764,5.942 3.246,10.839 7.763,12.601 2.51,0.979 5.732,1.071 8.408,0.239 2.771,-0.859 4.677,-2.586 5.189,-4.903 0.562,-2.52 -0.86,-4.513 -1.638,-5.875 z M 94.7,72.096 c -0.263,1.048 -1.457,1.976 -2.875,2.415 -1.903,0.591 -4.05,0.542 -5.758,-0.124 -1.15,-0.449 -2.059,-1.165 -2.776,-2.114 -0.002,-0.002 -0.005,-0.003 -0.006,-0.004 0.589,2.927 2.691,4.761 5.999,4.961 -1.854,0.146 -3.803,-0.124 -5.394,-0.879 -4.282,-2.035 -5.912,-6.726 -6.497,-11.266 -0.283,-2.203 -0.419,-5.002 -0.419,-8.084 0,-3.383 0.188,-6.931 0.434,-10.166 0.222,-2.914 2.167,-7.17 3.718,-9.936 -0.311,0.284 -0.713,0.694 -1.246,1.295 -7.706,8.235 -17.809,21.532 -27.462,39.578 -1.362,2.547 -4.231,3.837 -7.162,1.911 -1.047,-0.688 -1.678,-1.618 -1.991,-2.867 -0.007,-0.008 -0.014,-0.014 -0.02,-0.021 -0.1,2.44 0.887,4.66 2.885,5.801 -1.039,-0.206 -2.023,-0.63 -2.886,-1.186 -2.853,-1.84 -3.622,-4.556 -3.887,-8.26 -0.029,-0.417 -0.043,-0.883 -0.043,-1.397 0,-3.794 0.811,-10.21 2.416,-19.116 0.394,-2.186 0.859,-4.548 1.323,-6.757 1.062,-5.053 3.852,-10.295 5.55,-12.95 v 0 c -0.278,0.289 -0.565,0.602 -0.918,1.023 -12.511,15.422 -24.025,34.291 -29.851,51.193 -0.87,2.522 -2.998,3.481 -5.06,2.991 C 10.711,87.645 9.477,86.31 8.921,84.803 8.763,84.371 8.667,83.993 8.624,83.628 c 0,-0.001 -0.001,-0.001 -0.001,-0.003 -0.244,1.257 -0.093,2.348 0.298,3.476 0.424,1.222 1.306,2.442 2.645,3.222 C 9.716,89.919 7.131,88.002 6.047,85.685 5.114,83.695 4.846,81.551 5.811,78.631 7.752,72.74 17.49,56.388 23.478,47.335 33.8,31.732 43.463,20.503 48.982,15.23 c 2.941,-2.811 6.837,-4.032 11.405,-3.148 2.589,0.503 4.553,1.716 5.619,3.428 -0.942,-0.552 -2.181,0.721 -2.028,1.42 0.604,0.429 1.017,0.928 1.248,1.45 0.498,1.126 0.43,2.197 -0.314,4.045 -2.863,7.113 -6.709,19.056 -9.571,33.486 -0.029,0.142 -0.051,0.265 -0.07,0.378 0.004,-0.004 0.007,-0.009 0.009,-0.012 1.472,-4.833 3.958,-10.162 7.001,-14.109 5.615,-7.285 11.898,-14.42 16.779,-18.89 1.919,-1.759 3.222,-2.822 4.609,-3.406 2.211,-0.931 5.151,-0.85 7.861,0.217 1.727,0.679 2.789,1.611 3.413,2.641 -0.875,-0.557 -2.15,0.748 -2.017,1.512 1.692,1.131 1.898,2.944 1.135,5.933 -1.546,6.057 -2.343,12.078 -2.834,18.073 -0.483,5.909 -0.098,11.525 0.599,15.455 0.317,1.79 0.934,3.255 1.772,4.643 1.138,1.883 1.404,2.559 1.102,3.75 z"
   id="path981" /><path
   fill="#d39f45"
   d="m 111.449,57.34 c 0.445,-0.686 0.865,-1.064 1.538,-1.393 0.398,-0.188 1.112,-0.428 1.346,-0.507 1.021,-0.345 2.381,-0.996 4.138,-2.172 2.925,-1.962 5.506,-4.457 7.66,-7.239 0.815,-1.05 1.542,-2.091 2.197,-3.269 1.119,-2.008 1.279,-3.32 2.063,-4.048 0.191,-0.177 0.485,-0.386 0.801,-0.526 -1.089,-1.077 -2.877,-1.52 -4.425,-1.458 -3.816,0.154 -9.011,3.205 -12.941,8.902 -3.576,5.185 -4.327,10.228 -2.715,12.419 0.092,-0.271 0.217,-0.523 0.338,-0.709 z m 4.538,-10.451 c 2.92,-4.231 6.916,-7.037 10.072,-7.58 0.881,-0.151 1.442,-0.112 2.14,0.048 -0.029,0.187 -0.031,0.566 -0.154,1.012 -0.602,2.557 -4.807,8.241 -10.25,11.891 -2.492,1.668 -4.08,1.979 -4.97,2.21 0.335,-2.76 1.508,-5.183 3.162,-7.581 z"
   id="path983" />
<g
   id="Cutter">
</g>
</svg>
